<svg xmlns="http://www.w3.org/2000/svg" viewBox="0 0 1200 800"><defs><style>.cls-1{opacity:0.67;}.cls-2{opacity:0.41;}.cls-3,.cls-6{fill:none;stroke-linecap:round;stroke-linejoin:round;}.cls-3{stroke:#ffffd4;stroke-width:2px;}.cls-4{fill:#e27022;}.cls-5{fill:#f4aa41;}.cls-6{stroke:#fff;stroke-width:4px;}</style></defs><title>tldrArtboard 1</title><g id="Backdrop"><rect x="5" y="5" width="1190" height="790"/><path d="M1190,10V790H10V10H1190m10-10H0V800H1200V0Z"/><g id="Stars" class="cls-1"><g id="Stars_rows_9_and_10" data-name="Stars rows 9 and 10" class="cls-2"><g id="_" data-name="â­ï¸"><polygon class="cls-3" points="132 751 129.226 756.65 123 757.53 127.5 761.929 126.451 768.12 132 765.177 137.549 768.12 136.5 761.929 141 757.53 134.774 756.65 132 751"/></g><g id="_2" data-name="â­ï¸"><polygon class="cls-3" points="312 751 309.226 756.65 303 757.53 307.5 761.929 306.451 768.12 312 765.177 317.549 768.12 316.5 761.929 321 757.53 314.774 756.65 312 751"/></g><g id="_3" data-name="â­ï¸"><polygon class="cls-3" points="492 751 489.226 756.65 483 757.53 487.5 761.929 486.451 768.12 492 765.177 497.549 768.12 496.5 761.929 501 757.53 494.774 756.65 492 751"/></g><g id="_4" data-name="â­ï¸"><polygon class="cls-3" points="672 751 669.226 756.65 663 757.53 667.5 761.929 666.451 768.12 672 765.177 677.549 768.12 676.5 761.929 681 757.53 674.774 756.65 672 751"/></g><g id="_5" data-name="â­ï¸"><polygon class="cls-3" points="852 751 849.226 756.65 843 757.53 847.5 761.929 846.451 768.12 852 765.177 857.549 768.12 856.5 761.929 861 757.53 854.774 756.65 852 751"/></g><g id="_6" data-name="â­ï¸"><polygon class="cls-3" points="1032 751 1029.226 756.65 1023 757.53 1027.5 761.929 1026.451 768.12 1032 765.177 1037.549 768.12 1036.5 761.929 1041 757.53 1034.774 756.65 1032 751"/></g></g><g id="Stars_rows_7_and_8_copy" data-name="Stars rows 7 and 8 copy" class="cls-2"><g id="_7" data-name="â­ï¸"><polygon class="cls-3" points="42 661 39.226 666.65 33 667.53 37.5 671.929 36.451 678.12 42 675.177 47.549 678.12 46.5 671.929 51 667.53 44.774 666.65 42 661"/></g><g id="_8" data-name="â­ï¸"><polygon class="cls-3" points="132 571 129.226 576.65 123 577.53 127.5 581.929 126.451 588.12 132 585.177 137.549 588.12 136.5 581.929 141 577.53 134.774 576.65 132 571"/></g><g id="_9" data-name="â­ï¸"><polygon class="cls-3" points="222 661 219.226 666.65 213 667.53 217.5 671.929 216.451 678.12 222 675.177 227.549 678.12 226.5 671.929 231 667.53 224.774 666.65 222 661"/></g><g id="_10" data-name="â­ï¸"><polygon class="cls-3" points="312 571 309.226 576.65 303 577.53 307.5 581.929 306.451 588.12 312 585.177 317.549 588.12 316.5 581.929 321 577.53 314.774 576.65 312 571"/></g><g id="_11" data-name="â­ï¸"><polygon class="cls-3" points="402 661 399.226 666.65 393 667.53 397.5 671.929 396.451 678.12 402 675.177 407.549 678.12 406.5 671.929 411 667.53 404.774 666.65 402 661"/></g><g id="_12" data-name="â­ï¸"><polygon class="cls-3" points="492 571 489.226 576.65 483 577.53 487.5 581.929 486.451 588.12 492 585.177 497.549 588.12 496.5 581.929 501 577.53 494.774 576.65 492 571"/></g><g id="_13" data-name="â­ï¸"><polygon class="cls-3" points="582 661 579.226 666.65 573 667.53 577.5 671.929 576.451 678.12 582 675.177 587.549 678.12 586.5 671.929 591 667.53 584.774 666.65 582 661"/></g><g id="_14" data-name="â­ï¸"><polygon class="cls-3" points="672 571 669.226 576.65 663 577.53 667.5 581.929 666.451 588.12 672 585.177 677.549 588.12 676.5 581.929 681 577.53 674.774 576.65 672 571"/></g><g id="_15" data-name="â­ï¸"><polygon class="cls-3" points="762 661 759.226 666.65 753 667.53 757.5 671.929 756.451 678.12 762 675.177 767.549 678.12 766.5 671.929 771 667.53 764.774 666.65 762 661"/></g><g id="_16" data-name="â­ï¸"><polygon class="cls-3" points="852 571 849.226 576.65 843 577.53 847.5 581.929 846.451 588.12 852 585.177 857.549 588.12 856.5 581.929 861 577.53 854.774 576.65 852 571"/></g><g id="_17" data-name="â­ï¸"><polygon class="cls-3" points="942 661 939.226 666.65 933 667.53 937.5 671.929 936.451 678.12 942 675.177 947.549 678.12 946.5 671.929 951 667.53 944.774 666.65 942 661"/></g><g id="_18" data-name="â­ï¸"><polygon class="cls-3" points="1032 571 1029.226 576.65 1023 577.53 1027.5 581.929 1026.451 588.12 1032 585.177 1037.549 588.12 1036.5 581.929 1041 577.53 1034.774 576.65 1032 571"/></g><g id="_19" data-name="â­ï¸"><polygon class="cls-3" points="1122 661 1119.226 666.65 1113 667.53 1117.5 671.929 1116.451 678.12 1122 675.177 1127.549 678.12 1126.5 671.929 1131 667.53 1124.774 666.65 1122 661"/></g></g><g id="Stars_rows_5_and_6" data-name="Stars rows 5 and 6" class="cls-2"><g id="_20" data-name="â­ï¸"><polygon class="cls-3" points="42 481 39.226 486.65 33 487.53 37.5 491.929 36.451 498.12 42 495.177 47.549 498.12 46.5 491.929 51 487.53 44.774 486.65 42 481"/></g><g id="_21" data-name="â­ï¸"><polygon class="cls-3" points="132 391 129.226 396.65 123 397.53 127.5 401.929 126.451 408.12 132 405.177 137.549 408.12 136.5 401.929 141 397.53 134.774 396.65 132 391"/></g><g id="_22" data-name="â­ï¸"><polygon class="cls-3" points="222 481 219.226 486.65 213 487.53 217.5 491.929 216.451 498.12 222 495.177 227.549 498.12 226.5 491.929 231 487.53 224.774 486.65 222 481"/></g><g id="_23" data-name="â­ï¸"><polygon class="cls-3" points="312 391 309.226 396.65 303 397.53 307.5 401.929 306.451 408.12 312 405.177 317.549 408.12 316.5 401.929 321 397.53 314.774 396.65 312 391"/></g><g id="_24" data-name="â­ï¸"><polygon class="cls-3" points="402 481 399.226 486.65 393 487.53 397.5 491.929 396.451 498.12 402 495.177 407.549 498.12 406.5 491.929 411 487.53 404.774 486.65 402 481"/></g><g id="_25" data-name="â­ï¸"><polygon class="cls-3" points="492 391 489.226 396.65 483 397.53 487.5 401.929 486.451 408.12 492 405.177 497.549 408.12 496.5 401.929 501 397.53 494.774 396.65 492 391"/></g><g id="_26" data-name="â­ï¸"><polygon class="cls-3" points="582 481 579.226 486.65 573 487.53 577.5 491.929 576.451 498.12 582 495.177 587.549 498.12 586.5 491.929 591 487.53 584.774 486.65 582 481"/></g><g id="_27" data-name="â­ï¸"><polygon class="cls-3" points="672 391 669.226 396.65 663 397.53 667.5 401.929 666.451 408.12 672 405.177 677.549 408.12 676.5 401.929 681 397.53 674.774 396.65 672 391"/></g><g id="_28" data-name="â­ï¸"><polygon class="cls-3" points="762 481 759.226 486.65 753 487.53 757.5 491.929 756.451 498.12 762 495.177 767.549 498.12 766.5 491.929 771 487.53 764.774 486.65 762 481"/></g><g id="_29" data-name="â­ï¸"><polygon class="cls-3" points="852 391 849.226 396.65 843 397.53 847.5 401.929 846.451 408.12 852 405.177 857.549 408.12 856.5 401.929 861 397.53 854.774 396.65 852 391"/></g><g id="_30" data-name="â­ï¸"><polygon class="cls-3" points="942 481 939.226 486.65 933 487.53 937.5 491.929 936.451 498.12 942 495.177 947.549 498.12 946.5 491.929 951 487.53 944.774 486.65 942 481"/></g><g id="_31" data-name="â­ï¸"><polygon class="cls-3" points="1032 391 1029.226 396.65 1023 397.53 1027.5 401.929 1026.451 408.12 1032 405.177 1037.549 408.12 1036.5 401.929 1041 397.53 1034.774 396.65 1032 391"/></g><g id="_32" data-name="â­ï¸"><polygon class="cls-3" points="1122 481 1119.226 486.65 1113 487.53 1117.5 491.929 1116.451 498.12 1122 495.177 1127.549 498.12 1126.5 491.929 1131 487.53 1124.774 486.65 1122 481"/></g></g><g id="Stars_rows_3_and_4" data-name="Stars rows 3 and 4" class="cls-2"><g id="_33" data-name="â­ï¸"><polygon class="cls-3" points="42 301 39.226 306.65 33 307.53 37.5 311.929 36.451 318.12 42 315.177 47.549 318.12 46.5 311.929 51 307.53 44.774 306.65 42 301"/></g><g id="_34" data-name="â­ï¸"><polygon class="cls-3" points="132 211 129.226 216.65 123 217.53 127.5 221.929 126.451 228.12 132 225.177 137.549 228.12 136.5 221.929 141 217.53 134.774 216.65 132 211"/></g><g id="_35" data-name="â­ï¸"><polygon class="cls-3" points="222 301 219.226 306.65 213 307.53 217.5 311.929 216.451 318.12 222 315.177 227.549 318.12 226.5 311.929 231 307.53 224.774 306.65 222 301"/></g><g id="_36" data-name="â­ï¸"><polygon class="cls-3" points="312 211 309.226 216.65 303 217.53 307.5 221.929 306.451 228.12 312 225.177 317.549 228.12 316.5 221.929 321 217.53 314.774 216.65 312 211"/></g><g id="_37" data-name="â­ï¸"><polygon class="cls-3" points="402 301 399.226 306.65 393 307.53 397.5 311.929 396.451 318.12 402 315.177 407.549 318.12 406.5 311.929 411 307.53 404.774 306.65 402 301"/></g><g id="_38" data-name="â­ï¸"><polygon class="cls-3" points="492 211 489.226 216.65 483 217.53 487.5 221.929 486.451 228.12 492 225.177 497.549 228.12 496.5 221.929 501 217.53 494.774 216.65 492 211"/></g><g id="_39" data-name="â­ï¸"><polygon class="cls-3" points="582 301 579.226 306.65 573 307.53 577.5 311.929 576.451 318.12 582 315.177 587.549 318.12 586.5 311.929 591 307.53 584.774 306.65 582 301"/></g><g id="_40" data-name="â­ï¸"><polygon class="cls-3" points="672 211 669.226 216.65 663 217.53 667.5 221.929 666.451 228.12 672 225.177 677.549 228.12 676.5 221.929 681 217.53 674.774 216.65 672 211"/></g><g id="_41" data-name="â­ï¸"><polygon class="cls-3" points="762 301 759.226 306.65 753 307.53 757.5 311.929 756.451 318.12 762 315.177 767.549 318.12 766.5 311.929 771 307.53 764.774 306.65 762 301"/></g><g id="_42" data-name="â­ï¸"><polygon class="cls-3" points="852 211 849.226 216.65 843 217.53 847.5 221.929 846.451 228.12 852 225.177 857.549 228.12 856.5 221.929 861 217.53 854.774 216.65 852 211"/></g><g id="_43" data-name="â­ï¸"><polygon class="cls-3" points="942 301 939.226 306.65 933 307.53 937.5 311.929 936.451 318.12 942 315.177 947.549 318.12 946.5 311.929 951 307.53 944.774 306.65 942 301"/></g><g id="_44" data-name="â­ï¸"><polygon class="cls-3" points="1032 211 1029.226 216.65 1023 217.53 1027.5 221.929 1026.451 228.12 1032 225.177 1037.549 228.12 1036.5 221.929 1041 217.53 1034.774 216.65 1032 211"/></g><g id="_45" data-name="â­ï¸"><polygon class="cls-3" points="1122 301 1119.226 306.65 1113 307.53 1117.5 311.929 1116.451 318.12 1122 315.177 1127.549 318.12 1126.5 311.929 1131 307.53 1124.774 306.65 1122 301"/></g></g><g id="Stars_row_1_and_2_copy" data-name="Stars row 1 and 2 copy" class="cls-2"><g id="_46" data-name="â­ï¸"><polygon class="cls-3" points="42 121 39.226 126.65 33 127.53 37.5 131.929 36.451 138.12 42 135.177 47.549 138.12 46.5 131.929 51 127.53 44.774 126.65 42 121"/></g><g id="_47" data-name="â­ï¸"><polygon class="cls-3" points="132 31 129.226 36.65 123 37.53 127.5 41.929 126.451 48.12 132 45.177 137.549 48.12 136.5 41.929 141 37.53 134.774 36.65 132 31"/></g><g id="_48" data-name="â­ï¸"><polygon class="cls-3" points="222 121 219.226 126.65 213 127.53 217.5 131.929 216.451 138.12 222 135.177 227.549 138.12 226.5 131.929 231 127.53 224.774 126.65 222 121"/></g><g id="_49" data-name="â­ï¸"><polygon class="cls-3" points="312 31 309.226 36.65 303 37.53 307.5 41.929 306.451 48.12 312 45.177 317.549 48.12 316.5 41.929 321 37.53 314.774 36.65 312 31"/></g><g id="_50" data-name="â­ï¸"><polygon class="cls-3" points="402 121 399.226 126.65 393 127.53 397.5 131.929 396.451 138.12 402 135.177 407.549 138.12 406.5 131.929 411 127.53 404.774 126.65 402 121"/></g><g id="_51" data-name="â­ï¸"><polygon class="cls-3" points="492 31 489.226 36.65 483 37.53 487.5 41.929 486.451 48.12 492 45.177 497.549 48.12 496.5 41.929 501 37.53 494.774 36.65 492 31"/></g><g id="_52" data-name="â­ï¸"><polygon class="cls-3" points="582 121 579.226 126.65 573 127.53 577.5 131.929 576.451 138.12 582 135.177 587.549 138.12 586.5 131.929 591 127.53 584.774 126.65 582 121"/></g><g id="_53" data-name="â­ï¸"><polygon class="cls-3" points="672 31 669.226 36.65 663 37.53 667.5 41.929 666.451 48.12 672 45.177 677.549 48.12 676.5 41.929 681 37.53 674.774 36.65 672 31"/></g><g id="_54" data-name="â­ï¸"><polygon class="cls-3" points="762 121 759.226 126.65 753 127.53 757.5 131.929 756.451 138.12 762 135.177 767.549 138.12 766.5 131.929 771 127.53 764.774 126.65 762 121"/></g><g id="_55" data-name="â­ï¸"><polygon class="cls-3" points="852 31 849.226 36.65 843 37.53 847.5 41.929 846.451 48.12 852 45.177 857.549 48.12 856.5 41.929 861 37.53 854.774 36.65 852 31"/></g><g id="_56" data-name="â­ï¸"><polygon class="cls-3" points="942 121 939.226 126.65 933 127.53 937.5 131.929 936.451 138.12 942 135.177 947.549 138.12 946.5 131.929 951 127.53 944.774 126.65 942 121"/></g><g id="_57" data-name="â­ï¸"><polygon class="cls-3" points="1032 31 1029.226 36.65 1023 37.53 1027.5 41.929 1026.451 48.12 1032 45.177 1037.549 48.12 1036.5 41.929 1041 37.53 1034.774 36.65 1032 31"/></g><g id="_58" data-name="â­ï¸"><polygon class="cls-3" points="1122 121 1119.226 126.65 1113 127.53 1117.5 131.929 1116.451 138.12 1122 135.177 1127.549 138.12 1126.5 131.929 1131 127.53 1124.774 126.65 1122 121"/></g></g></g></g><g id="pmtldr00_longcat"><g id="Long_Cat" data-name="Long Cat"><g id="emoji"><g id="_59" data-name="ðŸˆï¸"><path class="cls-4" d="M912.907,469.93l14.419,14.418,29.9,6.409-6.942,21.894,4.272,17.089L966.309,526l13.885-26.7,6.408-27.769L968.445,444.3c-9.612-7.477-12.282-18.691-18.69-30.973Z"/><path class="cls-4" d="M313.478,466.726l-9.613,14.952-8.544,40.052-8.544,9.612-15.487-5.874-1.6-27.769s2.67-24.031,5.34-34.712,28.3-12.816,28.3-12.816Z"/><path class="cls-5" d="M936.938,395.7c-.534-.534-1.068-1.6-1.6-2.136A9.963,9.963,0,0,0,936.938,395.7Z"/><path class="cls-5" d="M935.071,409.922c-1.068-1.6-22.309,1.068-23.377,0C912.228,410.99,932.935,407.786,935.071,409.922Z"/><path class="cls-5" d="M1021.313,322.54l-14.418-3.2-22.963,8.544-3.738,23.5-2.136,16.555-17.089,20.293-13.885,8.01h-9.612c0-.534-.534-.534-.534-1.068H919.315l-28.3-10.681L347.121,373.272l-52.868,2.67-34.177,6.408L226.432,367.4l-22.963-14.953-19.224,3.738,1.068,2.136,8.01,16.021L175.7,401.575l4.807,24.031,27.235.534h11.214l17.623-.534-2.67,13.885,5.874,14.418-5.874,10.681L214.15,480.076l-2.67,21.895,14.952,17.623s20.827-1.6,12.283-24.565l14.952-14.419,25.1-6.408,10.681-6.408,23.5,4.272H869.651l11.215,18.157-7.476,25.1.534,14.952,13.884-1.6L903.3,507.845l10.146-13.884V475.27l19.225-19.225,12.282-26.167v-2.136h0s32.576-16.02,44.324-40.051c11.748-23.5-1.6-43.256,23.5-44.324C1022.381,342.833,1029.858,331.084,1021.313,322.54Z"/><path class="cls-6" d="M215.218,423.47c-12.283,5.34-26.167,4.272-26.167,4.272-9.079.534-16.555-21.361-13.351-25.1l17.623-27.235-9.612-18.157s26.7-7.476,42.187,11.215c1.6,2.136,4.272,3.738,6.943,5.34h.534c13.884,6.942,29.371,8.544,44.857,5.34,38.45-8.01,587.147-7.476,627.733,11.749S985,379.146,980.194,350.843c-4.272-24.565,19.224-40.585,36.313-26.7"/><path class="cls-6" d="M233.909,493.427c3.2-11.749,45.391-19.225,45.391-19.225s17.089-6.408,7.477-24.031"/><path class="cls-6" d="M246.191,410.119c-8.01,9.613-20.827,25.633-2.136,49.13,0,0-36.313,15.487-32.041,42.722,0,0,2.136,13.351,12.816,12.817"/><path class="cls-6" d="M273.96,499.835c-6.408,38.983,12.817,32.575,16.021,30.439,5.874-3.738,9.612-52.868,21.361-60.344,8.544-5.874,555.639-1.6,555.639-1.6"/><path class="cls-6" d="M865.379,453.375c.534,9.078,4.272,18.157,9.079,25.633,3.738,5.34,9.612,12.283,8.01,16.021-24.031,45.391,3.2,37.381,5.874,33.109,17.089-31.507,32.575-21.9,24.565-56.072,0,0,28.3-9.613,29.371-42.722"/><path class="cls-6" d="M917.713,476.338s12.817,17.089,41.654,14.419c0,0-17.623,36.313,0,40.585,10.146,2.67,25.1-59.81,25.1-59.81s-14.419-12.817-19.759-22.963"/></g></g></g></g></svg>